<?xml version="1.0" encoding="utf-8"?>
<!-- Generator: Adobe Illustrator 17.1.0, SVG Export Plug-In . SVG Version: 6.00 Build 0)  -->
<!DOCTYPE svg PUBLIC "-//W3C//DTD SVG 1.1//EN" "http://www.w3.org/Graphics/SVG/1.1/DTD/svg11.dtd">
<svg version="1.1" id="Layer_1" xmlns="http://www.w3.org/2000/svg" xmlns:xlink="http://www.w3.org/1999/xlink" x="0px" y="0px"
	 viewBox="4.9 185.6 591.8 229.2" style="enable-background:new 4.9 185.6 591.8 229.2;" xml:space="preserve">
<g>
	<path style="fill:#00788A;" d="M40.9,186.2h14.9c0.8,1.7,1.4,3.1,2,4.1c0.8,1.4,2.4,3.5,4.7,6.3l28.1,35.6V204
		c0-4.9-0.2-8.6-0.5-11.3c-0.3-2-0.6-4.2-1.3-6.6h11.9c-1.1,4.4-1.6,8.8-1.6,13.3v33.3c0,3.9,0.2,7.2,0.6,10
		c0.3,1.6,0.8,3.5,1.4,5.5H89.9c-0.5-1.1-0.9-2-1.3-2.7c-0.2-0.3-0.6-1.1-1.6-2.2l-2.7-3.8L58,205.6v24.5c0,3.6,0.3,7.4,0.8,11.1
		c0.3,2.5,0.9,4.9,1.7,7.1H47.4c0.8-2.4,1.3-4.5,1.4-6.3c0.5-3.8,0.6-7.1,0.6-10v-37.5c-1.4-1.9-2.7-3.3-3.8-4.4
		C44.4,189,43,187.8,40.9,186.2"/>
	<path style="fill:#00788A;" d="M110.4,186.2h33.4l-4.7,9.6c-3.1-1.4-5.8-2.4-8-3s-4.4-0.8-6.6-0.8c-0.6,0-1.4,0-2.5,0.2v21.6h19.5
		l-5.3,8.8c-3.3-0.9-5.8-1.6-7.7-2c-1.7-0.3-3.9-0.6-6.6-0.8v22.7c3.6,0,6,0,6.9-0.2c1.4-0.2,2.8-0.3,4.5-0.6
		c2.4-0.5,4.9-0.9,7.5-1.7c1.7-0.5,3.9-1.1,6.6-2l-4.5,10.2h-32.5c0.8-3,1.4-5.5,1.7-7.2c0.5-2.8,0.6-5.6,0.6-8.6V202
		c0-0.5-0.2-2.2-0.3-5.3c-0.2-2.2-0.3-3.9-0.6-5C111.5,190.1,111.1,188.4,110.4,186.2"/>
	<path style="fill:#00788A;" d="M148.4,186.2h12.5c-0.2,1.4-0.3,2.5-0.3,3.3c0,2.2,0.8,6.4,2.5,12.5l7.5,28.5l15.1-44.2h0.6
		l14.7,44.2l8-29.8c1.4-5.3,2-9.1,2-11.5c0-0.8,0-1.7-0.2-3.1H223c-1.4,3.5-2.5,6.9-3.6,10.5l-14.1,52.2h-7.4l-12.2-36.4l-12.4,36.4
		h-7.4l-12.2-46.6C152.2,195.6,150.3,190.3,148.4,186.2"/>
	<path style="fill:#00788A;" d="M244.4,186.2h14.1c1.1,2.7,2.8,5.5,5.3,8.6l16.9,21.2l18.7-22.9c1.9-2.2,3.3-4.4,4.5-6.6H316
		c-1.9,2.2-3.1,4.1-3.6,5.6c-0.8,2.5-1.3,5.6-1.3,9.3v30.4c0,3.8,0.3,7.2,0.8,10c0.3,2.2,1.1,4.2,2,6.4H299c0.9-2.2,1.6-3.9,1.9-5.5
		c0.6-3.1,0.9-6.4,0.9-9.9v-29.5l-20.9,26l-21-26v30.9c0,2.2,0.2,4.9,0.8,7.8c0.3,2,0.9,3.9,1.9,6.1H248c0.9-2.5,1.6-4.7,2-6.6
		c0.5-2.8,0.8-6.1,0.8-9.9v-38.7c-0.8-0.9-1.9-2-3-3.3C246.3,188.4,245.3,187.3,244.4,186.2"/>
	<path style="fill:#00788A;" d="M321.9,186.2h33.4l-4.7,9.6c-3.1-1.4-5.8-2.4-8-3s-4.4-0.8-6.6-0.8c-0.6,0-1.4,0-2.5,0.2v21.6H353
		l-5.3,8.8c-3.3-0.9-5.8-1.6-7.7-2c-1.7-0.3-3.9-0.6-6.6-0.8v22.7c3.6,0,6,0,6.9-0.2c1.4-0.2,2.8-0.3,4.5-0.6
		c2.4-0.5,4.9-0.9,7.5-1.7c1.7-0.5,3.9-1.1,6.6-2l-4.5,10.2h-32.6c0.8-3,1.4-5.5,1.7-7.2c0.5-2.8,0.6-5.6,0.6-8.6V202
		c0-0.5-0.2-2.2-0.3-5.3c-0.2-2.2-0.3-3.9-0.6-5C323.1,190.1,322.7,188.4,321.9,186.2"/>
	<path style="fill:#00788A;" d="M361.9,186.2H376c0.5,2,0.9,3.5,1.4,4.5c0.8,1.7,1.9,3.9,3.5,6.4l6.6,11l6.1-9.9
		c3-4.9,4.7-8.8,5.2-12.1h14c-6.3,8.8-10.4,14.7-12.2,18l-7.7,12.7l8,13.3c4.5,7.7,9.1,13.6,13.6,18.2h-16.2c0-1.7-0.2-3-0.5-3.9
		c-0.9-2.8-2-5.3-3.5-7.5l-6.6-11.1l-8.8,14.4c-1.1,1.6-1.7,3.1-2.2,4.2c-0.5,1.3-0.6,2.5-0.8,3.9h-14.3c2.4-2.5,4.1-4.7,5.3-6.3
		c2.8-3.9,5-7.4,6.7-10l8.9-15.1l-8.9-14.6C369.6,196.1,365.8,190.7,361.9,186.2"/>
	<path style="fill:#00788A;" d="M419.8,186.2h14.1c-0.9,2.7-1.4,4.9-1.7,6.7c-0.5,2.7-0.6,6-0.6,9.7v28.5c0,3.6,0.2,6.6,0.5,8.9
		c0.3,2.4,0.9,5.2,1.9,8.3h-14.1c0.9-2.8,1.6-5.2,1.9-6.9c0.5-2.8,0.6-6.4,0.6-10.8v-29.8c0-3.3-0.3-6.4-0.8-9.3
		C421.2,190,420.5,188.2,419.8,186.2"/>
	<path style="fill:#00788A;" d="M490.4,187.9v10c-3.3-1.7-6.1-2.8-8.6-3.5c-2.4-0.6-4.9-0.9-7.5-0.9c-6.7,0-12.4,2.2-16.9,6.7
		c-4.4,4.5-6.7,10.2-6.7,17.3s2.2,12.7,6.4,17.1c4.2,4.4,9.7,6.6,16.5,6.6c3.5,0,6.6-0.5,9.4-1.6s5.8-2.8,8.8-5l-0.5,9.6
		c-3.6,1.7-6.7,3-9.6,3.6c-2.8,0.8-6.1,1.1-9.7,1.1c-6.6,0-12.1-1.4-16.6-4.1c-4.5-2.7-8.2-6.4-10.7-11.3c-2.5-4.9-3.8-9.9-3.8-14.9
		c0-8.2,2.8-15.4,8.6-21.5c7.1-7.7,16.3-11.5,27.6-11.5c2.4,0,4.5,0.2,6.6,0.5C485.5,186.5,487.8,187,490.4,187.9"/>
	<path style="fill:#00788A;" d="M495.4,217.1c0-5.3,1.6-10.5,4.5-15.5c3-5,7.1-8.9,12.4-11.8c5.3-2.8,11-4.2,17.1-4.2
		c6,0,11.1,1.3,15.8,3.9c4.7,2.5,8.3,6.4,11,11.3c2.7,5,3.9,10.4,3.9,16.2c0,6-1.4,11.3-4.2,16.2s-6.7,8.8-11.8,11.5
		c-5.2,2.7-10.7,4.1-16.5,4.1c-6.1,0-11.6-1.4-16.6-4.4c-5-2.8-8.8-6.9-11.6-11.9C496.8,227.5,495.4,222.4,495.4,217.1 M505.7,215.2
		c0,4.9,1.1,9.3,3.3,13.5c2.2,4.2,5.2,7.4,9.3,9.7c4.1,2.4,8,3.5,12.1,3.5c6.4,0,11.3-2.4,14.9-7.2c3.6-4.9,5.3-10,5.3-15.5
		c0-4.4-1.1-8.8-3.5-13.3c-2.2-4.4-5.3-7.8-9.1-10.2c-3.9-2.4-7.8-3.6-11.8-3.6c-3.3,0-6.3,0.8-8.9,2.2c-2.7,1.4-5,3.3-6.7,5.6
		c-1.7,2.4-3,4.9-3.8,7.7C506.2,210.7,505.7,213,505.7,215.2"/>
</g>
<polygon style="fill:#C8531F;" points="516.4,216.2 538.4,216.2 527.4,227.3 "/>
<g>
	<path style="fill:#00788A;" d="M4.9,300.9c0-5.3,1.6-10.5,4.5-15.5c3-5,7.1-8.9,12.4-11.8c5.3-2.8,11-4.2,17.1-4.2
		c6,0,11.1,1.3,15.8,3.9c4.7,2.5,8.3,6.4,11,11.3c2.7,5,3.9,10.4,3.9,16.2c0,6-1.4,11.3-4.2,16.2c-2.8,4.9-6.7,8.8-11.8,11.5
		c-5.2,2.7-10.7,4.1-16.5,4.1c-6.1,0-11.6-1.4-16.6-4.4c-4.9-3-8.6-6.9-11.5-11.9S4.9,306,4.9,300.9 M15.2,298.8
		c0,4.9,1.1,9.3,3.3,13.5s5.2,7.4,9.3,9.7s8,3.5,12.1,3.5c6.4,0,11.3-2.4,14.9-7.2c3.6-4.9,5.3-10,5.3-15.5c0-4.4-1.1-8.8-3.5-13.3
		c-2.2-4.4-5.3-7.8-9.1-10.2c-3.9-2.4-7.8-3.6-11.8-3.6c-3.3,0-6.3,0.8-8.9,2.2c-2.7,1.4-5,3.3-6.7,5.6c-1.7,2.4-3,4.9-3.8,7.7
		C15.7,294.3,15.2,296.8,15.2,298.8"/>
	<path style="fill:#00788A;" d="M76.1,269.8h12.1c4.4,0,8,0.6,10.8,1.7c4.1,1.6,7.2,3.8,9.4,6.6c2.2,2.8,3.3,6,3.3,9.4
		c0,6.7-3.9,12.2-11.8,16.6c1.9,3.3,3.9,6.6,6.3,9.7c3.3,4.7,8.2,10.7,14.4,18.2H112c-3.8-3.3-7.2-6.6-10-9.9
		c-3-3.3-7.8-9.6-14.9-19v15.4c0,3,0.2,5.3,0.3,6.9c0.2,1.6,0.6,3.6,1.4,6v0.5H76.2v-0.5c1.1-4.2,1.7-9.4,1.7-15.5V283
		C77.8,278,77.2,273.7,76.1,269.8 M86.9,302.3c5.3-1.4,9.1-3.1,11.1-4.9c2.8-2.4,4.2-5.3,4.2-8.9c0-2.7-0.8-5-2.4-7.1
		c-1.6-2-3.6-3.6-6.4-4.9c-1.6-0.6-3.8-1.3-6.6-1.4C86.9,275.1,86.9,302.3,86.9,302.3z"/>
	<path style="fill:#00788A;" d="M118.1,269.8h46.3l-4.4,9.6c-3.6-1.4-6.3-2.4-8.2-2.8c-1.9-0.3-4.5-0.6-8-0.6v40.9
		c0,5.6,0.6,10.5,1.7,14.9h-12.7c1.1-5,1.7-9.4,1.7-13.3v-42.4c-3,0-5.6,0.2-7.5,0.6c-3.3,0.6-7.4,1.9-12.2,3.6L118.1,269.8z"/>
	<path style="fill:#00788A;" d="M170,269.8h14.1c-0.9,2.4-1.4,4.4-1.7,6.1c-0.5,2.5-0.6,5.2-0.6,8.2v12.5h26.7v-11
		c0-3.3-0.2-6.1-0.6-8.5c-0.3-2.4-0.9-4.9-1.9-7.5h14.3c-0.9,2.8-1.6,5-1.9,6.7c-0.3,2.5-0.6,5.8-0.6,9.9v28.5
		c0,4.2,0.2,7.7,0.6,10.2c0.3,2,0.9,4.2,1.9,6.7H206c0.9-2.5,1.6-4.9,1.9-6.6c0.5-2.5,0.6-6,0.6-10v-11h-26.7v10.4
		c0,3.9,0.2,7.2,0.6,10c0.3,2,0.9,4.4,1.7,7.2H170c0.8-2.4,1.4-4.4,1.7-6c0.5-3,0.8-6.4,0.8-10v-30c0-3.5-0.2-6.6-0.6-9.3
		C171.5,274.7,170.8,272.5,170,269.8"/>
	<path style="fill:#00788A;" d="M227.5,300.9c0-5.3,1.6-10.5,4.5-15.5c3-5,7.1-8.9,12.4-11.8c5.3-2.8,11-4.2,17.1-4.2
		c6,0,11.1,1.3,15.8,3.9c4.7,2.5,8.3,6.4,11,11.3c2.7,5,3.9,10.4,3.9,16.2c0,6-1.4,11.3-4.2,16.2c-2.8,4.9-6.7,8.8-11.8,11.5
		c-5.2,2.7-10.7,4.1-16.5,4.1c-6.1,0-11.6-1.4-16.6-4.4c-5-2.8-8.8-6.9-11.6-11.9C228.9,311.1,227.5,306,227.5,300.9 M238,298.8
		c0,4.9,1.1,9.3,3.3,13.5s5.2,7.4,9.3,9.7c4.1,2.4,8,3.5,12.1,3.5c6.4,0,11.3-2.4,14.9-7.2c3.6-4.9,5.3-10,5.3-15.5
		c0-4.4-1.1-8.8-3.5-13.3c-2.2-4.4-5.3-7.8-9.1-10.2c-3.9-2.4-7.8-3.6-11.8-3.6c-3.3,0-6.3,0.8-8.9,2.2c-2.7,1.4-5,3.3-6.7,5.6
		c-1.7,2.4-3,4.9-3.8,7.7C238.3,294.3,238,296.8,238,298.8"/>
	<path style="fill:#00788A;" d="M299.9,269.8h13.6c5.8,0,10.8,1.6,14.9,4.5c4.1,3,6.1,7.4,6.1,12.9c0,3.3-0.8,6.3-2.4,8.8
		c-1.6,2.7-3.9,4.7-6.9,6.1s-6.4,2.2-10.4,2.2c-0.8,0-1.9,0-3.1-0.2v10.4c0,1.4,0.2,3.8,0.6,7.2c0.3,3.5,0.9,6.9,1.9,10.4h-14.6
		c1.1-3.8,1.7-6.9,2-9.6c0.5-3.5,0.8-7.1,0.8-10.8v-25.3c0-4.5-0.3-8.3-0.8-11.3C301.3,273.6,300.7,271.8,299.9,269.8 M311.7,301.3
		c3.3-0.6,5.8-1.4,7.4-2.4c1.6-0.9,3-2.5,4.1-4.4c1.1-2,1.6-4.2,1.6-6.7s-0.6-4.9-1.7-7.1s-2.5-3.8-4.2-4.7c-1.7-0.9-3.9-1.7-6.7-2
		c-0.3,2.2-0.3,4.4-0.3,6.9v20.4H311.7z"/>
	<path style="fill:#00788A;" d="M359.5,269.6l21,45.3c1.7,3.6,3.3,6.7,4.5,9.1c0.9,1.7,2.7,4.4,5.2,8h-14.7c0-1.9-0.2-3.3-0.3-4.2
		c-0.5-2.4-1.3-4.5-2.2-6.7l-3.6-8.5h-21.8l-3.1,6.7c-0.9,2-1.7,4.1-2.4,6.1s-0.9,3.6-0.9,4.9c0,0.3,0,0.9,0,1.6h-15.1
		c1.4-1.7,2.8-3.5,3.9-5.3c1.1-1.9,2.8-5,5-9.4l23.8-47.7h0.6v0.1H359.5z M351.1,305.4h15.1l-7.2-16.6L351.1,305.4z"/>
	<path style="fill:#00788A;" d="M392.3,269.8h33.4l-4.7,9.6c-3.1-1.4-5.8-2.4-8-3s-4.4-0.8-6.6-0.8c-0.6,0-1.4,0-2.7,0.2v21.6h19.8
		l-5.3,8.8c-3.3-0.9-5.8-1.6-7.7-2c-1.7-0.3-3.9-0.6-6.6-0.8v22.7c3.6,0,6,0,6.9-0.2c1.4-0.2,2.8-0.3,4.5-0.6
		c2.4-0.5,4.9-0.9,7.5-1.7c1.7-0.5,3.9-1.1,6.6-2l-4.5,10.2h-32.6c0.8-3,1.4-5.5,1.7-7.2c0.5-2.8,0.6-5.6,0.6-8.6v-30.3
		c0-0.5-0.2-2.2-0.3-5.3c-0.2-2.2-0.3-3.9-0.6-5C393.6,273.9,393.1,272,392.3,269.8"/>
	<path style="fill:#00788A;" d="M434.4,269.8c2.7-0.2,4.7-0.2,6.3-0.2c9.3,0,16.3,0.9,21.3,3c6.3,2.5,11,6.3,14.6,11.5
		c3.5,5.2,5.2,10.8,5.2,17.3c0,5.2-1.1,9.9-3.5,14.1s-5.3,7.8-9.1,10.5c-2.5,1.9-5.6,3.3-9.3,4.2c-3.6,1.1-7.1,1.6-10.5,1.6h-15.1
		c0.9-2.8,1.6-5.2,1.9-7.2c0.5-3,0.6-6.9,0.6-11.8v-25.9c0-5.8-0.8-11.1-2.5-16L434.4,269.8L434.4,269.8z M446.6,326
		c3.5-0.3,6.4-0.9,8.9-2c2.5-0.9,4.9-2.5,7.2-4.5c2.4-2,4.2-4.7,5.6-7.8c1.6-3.1,2.2-6.7,2.2-10.8c0-5-1.1-9.4-3.5-13.2
		c-2.4-3.8-5.6-6.7-9.9-8.9c-2.8-1.4-6.4-2.5-10.8-3.1c-0.3,3.3-0.5,6.3-0.5,8.8v32.3C446.1,319.5,446.3,322.7,446.6,326"/>
	<path style="fill:#00788A;" d="M487.5,269.8h14.1c-0.9,2.7-1.4,4.9-1.7,6.7c-0.5,2.7-0.6,6-0.6,9.7v28.5c0,3.6,0.2,6.6,0.5,8.9
		c0.3,2.4,0.9,5.2,1.9,8.3h-14.1c0.9-2.8,1.6-5.2,1.9-6.9c0.5-2.8,0.6-6.4,0.6-10.8v-29.8c0-3.3-0.3-6.4-0.8-9.3
		C488.9,273.7,488.3,271.8,487.5,269.8"/>
	<path style="fill:#00788A;" d="M558.1,271.7v10c-3.3-1.7-6.1-2.8-8.6-3.5c-2.4-0.6-4.9-0.9-7.5-0.9c-6.7,0-12.4,2.2-16.9,6.7
		c-4.4,4.5-6.7,10.2-6.7,17.3c0,7.1,2.2,12.7,6.4,17.1s9.7,6.6,16.5,6.6c3.5,0,6.6-0.5,9.4-1.6c2.8-1.1,5.8-2.8,8.8-5L559,328
		c-3.6,1.7-6.7,3-9.6,3.6c-2.8,0.8-6.1,1.1-9.7,1.1c-6.6,0-12.1-1.4-16.6-4.1s-8.2-6.4-10.7-11.3s-3.8-9.9-3.8-14.9
		c0-8.2,2.8-15.4,8.6-21.5c7.1-7.7,16.3-11.5,27.6-11.5c2.4,0,4.5,0.2,6.6,0.5C553.3,270.1,555.6,270.7,558.1,271.7"/>
	<path style="fill:#00788A;" d="M593.3,272.2v9.6c-2.4-1.9-4.4-3.1-6.1-3.8c-1.7-0.8-3.6-1.1-5.5-1.1c-2.8,0-5.2,0.8-6.9,2.5
		c-1.7,1.6-2.7,3.6-2.7,6c0,2,0.8,4.1,2.5,6.1c1.3,1.6,4.7,3.9,10.5,7.2c4.4,2.5,7.4,5,9.1,7.5c1.6,2.5,2.5,5.3,2.5,8.5
		c0,5-1.9,9.3-5.6,12.5c-3.8,3.3-8.9,5-15.5,5c-3.3,0-6.7-0.6-10.7-1.7v-13.2c2.5,2.8,4.7,4.9,6.4,6c1.9,1.1,3.8,1.6,5.6,1.6
		c2.5,0,4.7-0.9,6.6-2.7c1.7-1.7,2.7-3.8,2.7-6.1c0-1.4-0.3-2.7-0.9-3.8c-0.6-1.1-1.6-2.2-2.8-3.3c-0.5-0.5-2.2-1.6-5.2-3.5
		c-4.4-2.8-7.4-4.9-8.8-6.1c-2-1.7-3.6-3.8-4.5-5.8s-1.4-4.4-1.4-6.9c0-4.9,1.7-9.1,5.3-12.7s8-5.3,13.2-5.3
		C584.5,269.2,588.7,270.1,593.3,272.2"/>
</g>
<polygon style="fill:#C8531F;" points="270.6,305.3 248.6,305.3 259.6,294.1 "/>
<polygon style="fill:#C8531F;" points="41.3,291.9 41.3,313.9 30.1,302.9 "/>
<polygon style="fill:#C8531F;" points="187.5,362.4 168.5,362.4 177.9,371.8 "/>
<polygon style="fill:#C8531F;" points="165.2,362.4 146.2,362.4 155.6,371.8 "/>
<polygon style="fill:#C8531F;" points="142.9,362.4 123.9,362.4 133.3,371.8 "/>
<polygon style="fill:#C8531F;" points="120.5,362.4 101.5,362.4 111.1,371.8 "/>
<polygon style="fill:#C8531F;" points="499.8,362.4 480.6,362.4 490.2,371.8 "/>
<polygon style="fill:#C8531F;" points="477.3,362.4 458.4,362.4 467.9,371.8 "/>
<polygon style="fill:#C8531F;" points="455.1,362.4 436.1,362.4 445.6,371.8 "/>
<polygon style="fill:#C8531F;" points="432.8,362.4 413.8,362.4 423.2,371.8 "/>
<polygon style="fill:#C8531F;" points="410.5,362.4 391.5,362.4 400.9,371.8 "/>
<polygon style="fill:#C8531F;" points="388.2,362.4 369.3,362.4 378.7,371.8 "/>
<polygon style="fill:#C8531F;" points="365.8,362.4 346.8,362.4 356.4,371.8 "/>
<polygon style="fill:#C8531F;" points="343.5,362.4 324.5,362.4 334.1,371.8 "/>
<polygon style="fill:#C8531F;" points="321.3,362.4 302.3,362.4 311.8,371.8 "/>
<polygon style="fill:#C8531F;" points="299,362.4 280,362.4 289.4,371.8 "/>
<polygon style="fill:#C8531F;" points="276.7,362.4 257.7,362.4 267.1,371.8 "/>
<polygon style="fill:#C8531F;" points="254.4,362.4 235.3,362.4 244.9,371.8 "/>
<polygon style="fill:#C8531F;" points="232,362.4 213,362.4 222.6,371.8 "/>
<polygon style="fill:#C8531F;" points="209.7,362.4 190.7,362.4 200.3,371.8 "/>
<g>
	<path style="fill:#00788A;" d="M529.7,413.3c0-2.8-0.2-5.6-0.2-8.5c0-3.6,0-7.4,0.2-11l-0.2-0.2c-1.3,0-1.4,0.2-2.8,0.2l-0.2,0.2
		c0.2,2,0.2,2.7,0.3,7.4l0.3,9.9l-3.8-6.6c-2-3.5-4.1-7.2-6.1-10.8l-0.3-0.2c-1.7,0-2,0-3.9,0.2l-0.2,0.2c0.2,4.1,0.2,8.2,0.2,12.2
		c0,2.8,0,5.6-0.2,8.5l0.2,0.2c1.4-0.2,1.6-0.2,2.8-0.2l0.2-0.2c0-1.3,0-1.3-0.2-3.8c0-1.3-0.2-2.5-0.2-3.8l-0.3-10.2l4.7,8.5
		c1.7,3.1,3.6,6.3,5.3,9.4l0.3,0.2c1.7-0.2,1.9-0.2,3.6-0.2l0.2-0.2L529.7,413.3z M492.5,412.7c-2.2,0-3.9-1.1-4.9-2.8
		s-1.3-4.2-1.3-5.6s0.2-4.1,1.4-6c0.6-0.9,2-2.5,4.9-2.5c0.8,0,3.3,0,4.9,2.5c1.1,1.9,1.3,4.7,1.3,5.8
		C498.7,408.6,496.9,412.7,492.5,412.7 M492.4,415.2c5.8,0,9.7-3.8,9.7-10.8c0-6.9-3.8-11-9.6-11c-6.1,0-9.7,4.4-9.7,11.1
		C482.8,411,486.3,415.2,492.4,415.2 M471.7,393.6c-1.6,0.2-2,0.2-3.3,0.2l-0.2,0.3c0.2,4.5,0.2,8.9,0.2,13.5c0,3.9,0,5.5-0.2,7.2
		l0.2,0.2c1.6,0,2,0,3.3-0.2l0.2-0.2c-0.2-3.1-0.3-5.5-0.3-11.3c0-5.2,0-7.5,0.2-9.4v-0.3H471.7z M458.8,396.1c0-0.9,0-1.3,0.2-2.2
		l-0.2-0.2c-2.4,0-4.5,0-6.9,0c-2.2,0-5.6,0-7.7,0l-0.2,0.2c0,1.1,0,1.1-0.2,2.2l0.2,0.2c2.7-0.2,3-0.2,5.5-0.2c0,1.3,0.2,2.8,0.2,6
		c0,4.2,0,8.3-0.2,12.5l0.2,0.2c1.6-0.2,1.7-0.2,3.5-0.2l0.2-0.2c-0.2-1.7-0.2-4.7-0.2-12.2c0-2.7,0-3.1,0-6.1c2.5,0,3,0,5.5,0
		L458.8,396.1L458.8,396.1z M427.6,412.7c-2.2,0-3.9-1.1-4.9-2.8c-0.9-1.7-1.3-4.2-1.3-5.6s0.2-4.1,1.4-6c0.6-0.9,2-2.5,4.9-2.5
		c0.8,0,3.3,0,4.9,2.5c1.1,1.9,1.3,4.7,1.3,5.8C433.7,408.6,432,412.7,427.6,412.7 M427.5,415.2c5.8,0,9.7-3.8,9.7-10.8
		c0-6.9-3.8-11-9.6-11c-6.1,0-9.7,4.4-9.7,11.1C417.9,411,421.3,415.2,427.5,415.2 M406.4,393.6c-2,0-2.4,0.2-4.5,0.2l-0.2,0.2
		c-0.5,1.6-0.5,1.7-1.7,5.6l-3.8,12.4l-3.3-12.1c-0.6-2-1.1-3.8-1.6-6.1l-0.2-0.2c-1.9,0-2.4,0.2-4.5,0.2l-0.2,0.2
		c0,2.7,0,3-0.3,8.3c-0.2,3.6-0.3,7.1-0.6,10.7c0,0.6-0.2,1.3-0.2,1.9l0.2,0.2c1.3-0.2,1.4-0.2,2.8-0.2l0.2-0.2c0-2.4,0-3.1,0.2-6.6
		l0.2-5.3c0.2-3,0.2-3.6,0.2-6.6c0.5,1.9,0.5,2.4,1.7,6.6l1.3,4.2c0.3,0.9,1.6,5.5,1.9,6.3c0.2,0.5,0.3,0.9,0.5,1.6l0.2,0.2
		c1.7-0.2,1.9-0.2,3.5-0.2l0.2-0.2c0.6-2.4,1.1-3.5,2.2-6.7l1.4-4.4c1.3-4.2,1.7-5.8,2.2-7.5c0,1.1,0,5.6,0,7.8v3.1
		c0.2,3.3,0.2,4.4,0.2,7.7l0.2,0.2c1.6,0,1.7-0.2,3.3-0.2l0.2-0.2c-0.3-6.9-0.6-13.8-0.8-20.7L406.4,393.6z M358.6,413.3
		c0-2.8-0.2-5.6-0.2-8.5c0-3.6,0-7.4,0.2-11l-0.2-0.2c-1.3,0-1.6,0.2-2.8,0.2l-0.2,0.2c0.2,2,0.2,2.7,0.3,7.4l0.3,9.9l-3.8-6.6
		c-2-3.5-4.1-7.2-6.1-10.8l-0.3-0.2c-1.7,0-2,0-3.9,0.2l-0.2,0.2c0.2,4.1,0.2,8.2,0.2,12.2c0,2.8,0,5.6-0.2,8.5l0.2,0.2
		c1.4-0.2,1.6-0.2,2.8-0.2l0.2-0.2c0-1.3,0-1.3-0.2-3.8c0-1.3-0.2-2.5-0.2-3.8l-0.3-10.2l4.7,8.5c1.7,3.1,3.6,6.3,5.3,9.4l0.3,0.2
		c1.7-0.2,1.9-0.2,3.6-0.2l0.2-0.2L358.6,413.3z M329.4,393.6c-1.6,0.2-2,0.2-3.3,0.2L326,394c0.2,4.5,0.2,8.9,0.2,13.5
		c0,3.9,0,5.5-0.2,7.2l0.2,0.2c1.6,0,2,0,3.3-0.2l0.2-0.2c-0.2-3.1-0.3-5.5-0.3-11.3c0-5.2,0-7.5,0.2-9.4L329.4,393.6z M299.6,412.1
		c-3.9,0.2-4.7,0.2-9.3,0.2c0-2.8,0-3.6,0-7.1c4.1,0,4.9,0,8.3,0.2l0.2-0.2c0-0.9,0-1.3,0.2-2.4l-0.2-0.2c-3.6,0-4.7,0.2-8.5,0
		c0-2.7,0-3.6,0.2-6.3c3.8,0,5,0,8.9,0.2l0.2-0.2c0-1.1,0.2-1.4,0.2-2.4l-0.2-0.2c-5.5,0-6.6,0-12.5,0.2l-0.2,0.2
		c0.2,3.5,0.2,6.3,0.2,11.3c0,5.5-0.2,7.1-0.2,9.4l0.2,0.2c5.6,0,6.6-0.2,12.4-0.2l0.2-0.2c0-0.9,0-1.3,0.2-2.2L299.6,412.1z
		 M276.5,410.7c-0.9,0.6-2.7,1.9-5.5,1.9c-4.1,0-7.2-2.7-7.2-8.3c0-5,2.7-8.3,7.4-8.3c2.7,0,4.1,0.9,4.7,1.4l0.3-0.2
		c0.2-1.3,0.2-1.6,0.3-2.7l-0.2-0.3c-0.9-0.3-2.7-0.9-5.5-0.9c-2,0-5.3,0.3-7.8,3.1c-2.7,2.8-2.7,6.4-2.7,7.8c0,6.6,3.9,11,10.4,11
		c3,0,4.9-0.9,5.6-1.3l0.2-0.2c0-1.1,0.2-1.6,0.2-3H276.5z M249.6,413.3c0-2.8-0.2-5.6-0.2-8.5c0-3.6,0-7.4,0.2-11l-0.2-0.2
		c-1.3,0-1.4,0.2-2.8,0.2l-0.2,0.2c0.2,2,0.2,2.7,0.3,7.4l0.3,9.9l-3.8-6.6c-2-3.5-4.1-7.2-6.1-10.8l-0.3-0.2c-1.7,0-2,0-3.9,0.2
		l-0.2,0.2c0.2,4.1,0.2,8.2,0.2,12.2c0,2.8,0,5.6-0.2,8.5l0.2,0.2c1.4-0.2,1.6-0.2,2.8-0.2l0.2-0.2c0-1.3,0-1.3-0.2-3.8
		c0-1.3-0.2-2.5-0.2-3.8l-0.3-10.2l4.7,8.5c1.7,3.1,3.6,6.3,5.3,9.4l0.3,0.2c1.7-0.2,1.9-0.2,3.6-0.2l0.2-0.2L249.6,413.3z
		 M222.3,412.1c-3.9,0.2-4.7,0.2-9.3,0.2c0-2.8,0-3.6,0-7.1c4.1,0,4.9,0,8.3,0.2l0.2-0.2c0-0.9,0-1.3,0.2-2.4l-0.2-0.2
		c-3.6,0-4.7,0.2-8.5,0c0-2.7,0-3.6,0.2-6.3c3.8,0,5,0,8.9,0.2l0.2-0.2c0-1.1,0.2-1.4,0.2-2.4l-0.2-0.2c-5.5,0-6.6,0-12.5,0.2
		l-0.2,0.2c0.2,3.5,0.2,6.3,0.2,11.3c0,5.5-0.2,7.1-0.2,9.4l0.2,0.2c5.6,0,6.6-0.2,12.4-0.2l0.2-0.2c0-0.9,0-1.3,0.2-2.2
		L222.3,412.1z M199.7,411.9c-3.9,0.2-4.9,0.2-8.2,0.2c0-1.4,0-2.7,0-4.9c0-0.8,0-7.8,0.3-13.5l-0.2-0.2c-1.6,0-1.9,0-3.5,0.2
		l-0.2,0.2c0.2,2.4,0.3,4.9,0.3,9.6c0,5.2-0.2,8.8-0.2,11.1l0.2,0.2c5.6-0.2,6.1-0.2,11.3-0.2l0.2-0.2c0-0.9,0-1.3,0.2-2.4
		L199.7,411.9z M178.4,411.9c-3.9,0.2-4.9,0.2-8.2,0.2c0-1.4,0-2.7,0-4.9c0-0.8,0-7.8,0.3-13.5l-0.2-0.2c-1.6,0-1.9,0-3.5,0.2
		l-0.2,0.2c0.2,2.4,0.3,4.9,0.3,9.6c0,5.2-0.2,8.8-0.2,11.1l0.2,0.2c5.6-0.2,6.1-0.2,11.3-0.2l0.2-0.2c0-0.9,0-1.3,0.2-2.4
		L178.4,411.9z M156.1,412.1c-3.9,0.2-4.7,0.2-9.3,0.2c0-2.8,0-3.6,0-7.1c4.1,0,4.9,0,8.3,0.2l0.2-0.2c0-0.9,0-1.3,0.2-2.4l-0.2-0.2
		c-3.6,0-4.7,0.2-8.5,0c0-2.7,0-3.6,0.2-6.3c3.8,0,5,0,8.9,0.2l0.2-0.2c0-1.1,0.2-1.4,0.2-2.4l-0.2-0.2c-5.5,0-6.6,0-12.5,0.2
		l-0.2,0.2c0.2,3.5,0.2,6.3,0.2,11.3c0,5.5-0.2,7.1-0.2,9.4l0.2,0.2c5.6,0,6.6-0.2,12.4-0.2l0.2-0.2c0-0.9,0-1.3,0.2-2.2
		L156.1,412.1z M133,410.7c-0.9,0.6-2.7,1.9-5.5,1.9c-4.1,0-7.2-2.7-7.2-8.3c0-5,2.7-8.3,7.4-8.3c2.7,0,4.1,0.9,4.7,1.4l0.3-0.2
		c0.2-1.3,0.2-1.6,0.3-2.7l-0.2-0.3c-0.9-0.3-2.7-0.9-5.5-0.9c-2,0-5.3,0.3-7.8,3.1c-2.7,2.8-2.7,6.4-2.7,7.8c0,6.6,3.9,11,10.4,11
		c3,0,4.9-0.9,5.6-1.3l0.2-0.2c0-1.1,0.2-1.6,0.2-3H133z M108.7,414.4c-2-3.5-4.1-7.1-6.1-10.7c2.2-3.8,4.7-7.7,6.1-10l-0.2-0.2
		c-1.4,0-1.9,0.2-3.3,0.2l-0.2,0.2c-1.7,3.5-2,4.1-3.9,7.4c-1.7-3.3-2.2-4.1-3.9-7.5l-0.3-0.2c-0.6,0.2-1.1,0.2-1.7,0.2
		s-1.1,0-1.7,0.2l-0.2,0.3c2,3.1,4.7,8.2,5.6,9.9c-0.9,1.6-1.3,2.2-3.1,5c-0.9,1.6-1.9,3-3.6,5.6l0.3,0.2c1.6-0.2,1.9-0.2,3.3-0.2
		l0.3-0.2c1.9-3.5,2.5-4.5,4.4-7.8c2,3.8,2.7,4.7,4.4,8l0.2,0.2c0.6,0,1.3-0.2,1.9-0.2s1.1,0,1.7-0.2L108.7,414.4z M84.2,412.1
		c-3.9,0.2-4.7,0.2-9.3,0.2c0-2.8,0-3.6,0-7.1c4.1,0,4.9,0,8.3,0.2l0.2-0.2c0-0.9,0-1.3,0.2-2.4l-0.2-0.2c-3.6,0-4.7,0.2-8.5,0
		c0-2.7,0-3.6,0.2-6.3c3.8,0,5,0,8.9,0.2l0.2-0.2c0-1.1,0.2-1.4,0.2-2.4l-0.2-0.2c-5.5,0-6.6,0-12.5,0.2l-0.2,0.2
		c0.2,3.5,0.2,6.3,0.2,11.3c0,5.5-0.2,7.1-0.2,9.4l0.2,0.2c5.6,0,6.6-0.2,12.4-0.2l0.2-0.2c0-0.9,0-1.3,0.2-2.2L84.2,412.1z"/>
</g>
</svg>
