<?xml version="1.0" encoding="utf-8"?>
<!-- Generator: Adobe Illustrator 17.1.0, SVG Export Plug-In . SVG Version: 6.00 Build 0)  -->
<!DOCTYPE svg PUBLIC "-//W3C//DTD SVG 1.1//EN" "http://www.w3.org/Graphics/SVG/1.1/DTD/svg11.dtd">
<svg version="1.1" id="Layer_1" xmlns="http://www.w3.org/2000/svg" xmlns:xlink="http://www.w3.org/1999/xlink" x="0px" y="0px"
	 viewBox="0 0 382.5 151.5" style="enable-background:new 0 0 382.5 151.5;" xml:space="preserve">
<g>
	<path style="fill:#FFFFFF;" d="M26.1,3.2h9.5c0.5,1.1,0.9,2,1.3,2.6c0.5,0.9,1.5,2.2,3,4l17.9,22.7v-18c0-3.1-0.1-5.5-0.3-7.2
		c-0.2-1.3-0.4-2.7-0.8-4.2h7.6c-0.7,2.8-1,5.6-1,8.5v21.2c0,2.5,0.1,4.6,0.4,6.4c0.2,1,0.5,2.2,0.9,3.5h-7.3
		C57,42,56.7,41.4,56.5,41c-0.1-0.2-0.4-0.7-1-1.4l-1.7-2.4L37,15.6v15.6c0,2.3,0.2,4.7,0.5,7.1c0.2,1.6,0.6,3.1,1.1,4.5h-8.4
		c0.5-1.5,0.8-2.9,0.9-4c0.3-2.4,0.4-4.5,0.4-6.4V8.5c-0.9-1.2-1.7-2.1-2.4-2.8C28.3,5,27.4,4.2,26.1,3.2"/>
	<path style="fill:#FFFFFF;" d="M70.4,3.2h21.3l-3,6.1c-2-0.9-3.7-1.5-5.1-1.9c-1.4-0.4-2.8-0.5-4.2-0.5c-0.4,0-0.9,0-1.6,0.1v13.8
		h12.4l-3.4,5.6c-2.1-0.6-3.7-1-4.9-1.3c-1.1-0.2-2.5-0.4-4.2-0.5v14.5c2.3,0,3.8,0,4.4-0.1c0.9-0.1,1.8-0.2,2.9-0.4
		c1.5-0.3,3.1-0.6,4.8-1.1c1.1-0.3,2.5-0.7,4.2-1.3l-2.9,6.5H70.4c0.5-1.9,0.9-3.5,1.1-4.6c0.3-1.8,0.4-3.6,0.4-5.5V13.2
		c0-0.3-0.1-1.4-0.2-3.4c-0.1-1.4-0.2-2.5-0.4-3.2C71.1,5.7,70.8,4.6,70.4,3.2"/>
	<path style="fill:#FFFFFF;" d="M94.6,3.2h8c-0.1,0.9-0.2,1.6-0.2,2.1c0,1.4,0.5,4.1,1.6,8l4.8,18.2l9.6-28.2h0.4l9.4,28.2l5.1-19
		c0.9-3.4,1.3-5.8,1.3-7.3c0-0.5,0-1.1-0.1-2h7.8c-0.9,2.2-1.6,4.4-2.3,6.7l-9,33.3h-4.7L118.5,20l-7.9,23.2h-4.7l-7.8-29.7
		C97,9.2,95.8,5.8,94.6,3.2"/>
	<path style="fill:#FFFFFF;" d="M155.8,3.2h9c0.7,1.7,1.8,3.5,3.4,5.5l10.8,13.5l11.9-14.6c1.2-1.4,2.1-2.8,2.9-4.2h7.7
		c-1.2,1.4-2,2.6-2.3,3.6c-0.5,1.6-0.8,3.6-0.8,5.9v19.4c0,2.4,0.2,4.6,0.5,6.4c0.2,1.4,0.7,2.7,1.3,4.1h-9.5c0.6-1.4,1-2.5,1.2-3.5
		c0.4-2,0.6-4.1,0.6-6.3V14.2l-13.3,16.6l-13.4-16.6v19.7c0,1.4,0.1,3.1,0.5,5c0.2,1.3,0.6,2.5,1.2,3.9h-9.4c0.6-1.6,1-3,1.3-4.2
		c0.3-1.8,0.5-3.9,0.5-6.3V7.6c-0.5-0.6-1.2-1.3-1.9-2.1C157,4.6,156.4,3.9,155.8,3.2"/>
	<path style="fill:#FFFFFF;" d="M205.2,3.2h21.3l-3,6.1c-2-0.9-3.7-1.5-5.1-1.9c-1.4-0.4-2.8-0.5-4.2-0.5c-0.4,0-0.9,0-1.6,0.1v13.8
		h12.4l-3.4,5.6c-2.1-0.6-3.7-1-4.9-1.3c-1.1-0.2-2.5-0.4-4.2-0.5v14.5c2.3,0,3.8,0,4.4-0.1c0.9-0.1,1.8-0.2,2.9-0.4
		c1.5-0.3,3.1-0.6,4.8-1.1c1.1-0.3,2.5-0.7,4.2-1.3l-2.9,6.5h-20.8c0.5-1.9,0.9-3.5,1.1-4.6c0.3-1.8,0.4-3.6,0.4-5.5V13.2
		c0-0.3-0.1-1.4-0.2-3.4c-0.1-1.4-0.2-2.5-0.4-3.2C206,5.7,205.7,4.6,205.2,3.2"/>
	<path style="fill:#FFFFFF;" d="M230.7,3.2h9c0.3,1.3,0.6,2.2,0.9,2.9c0.5,1.1,1.2,2.5,2.2,4.1l4.2,7l3.9-6.3c1.9-3.1,3-5.6,3.3-7.7
		h8.9c-4,5.6-6.6,9.4-7.8,11.5l-4.9,8.1l5.1,8.5c2.9,4.9,5.8,8.7,8.7,11.6h-10.3c0-1.1-0.1-1.9-0.3-2.5c-0.6-1.8-1.3-3.4-2.2-4.8
		l-4.2-7.1l-5.6,9.2c-0.7,1-1.1,2-1.4,2.7c-0.3,0.8-0.4,1.6-0.5,2.5h-9.1c1.5-1.6,2.6-3,3.4-4c1.8-2.5,3.2-4.7,4.3-6.4l5.7-9.6
		l-5.7-9.3C235.6,9.5,233.2,6.1,230.7,3.2"/>
	<path style="fill:#FFFFFF;" d="M267.6,3.2h9c-0.6,1.7-0.9,3.1-1.1,4.3c-0.3,1.7-0.4,3.8-0.4,6.2v18.2c0,2.3,0.1,4.2,0.3,5.7
		c0.2,1.5,0.6,3.3,1.2,5.3h-9c0.6-1.8,1-3.3,1.2-4.4c0.3-1.8,0.4-4.1,0.4-6.9V12.6c0-2.1-0.2-4.1-0.5-5.9
		C268.5,5.6,268.1,4.5,267.6,3.2"/>
	<path style="fill:#FFFFFF;" d="M312.6,4.3v6.4c-2.1-1.1-3.9-1.8-5.5-2.2c-1.5-0.4-3.1-0.6-4.8-0.6c-4.3,0-7.9,1.4-10.8,4.3
		c-2.8,2.9-4.3,6.5-4.3,11c0,4.5,1.4,8.1,4.1,10.9c2.7,2.8,6.2,4.2,10.5,4.2c2.2,0,4.2-0.3,6-1c1.8-0.7,3.7-1.8,5.6-3.2l-0.3,6.1
		c-2.3,1.1-4.3,1.9-6.1,2.3c-1.8,0.5-3.9,0.7-6.2,0.7c-4.2,0-7.7-0.9-10.6-2.6c-2.9-1.7-5.2-4.1-6.8-7.2c-1.6-3.1-2.4-6.3-2.4-9.5
		c0-5.2,1.8-9.8,5.5-13.7c4.5-4.9,10.4-7.3,17.6-7.3c1.5,0,2.9,0.1,4.2,0.3C309.5,3.4,311,3.7,312.6,4.3"/>
	<path style="fill:#FFFFFF;" d="M315.8,22.9c0-3.4,1-6.7,2.9-9.9c1.9-3.2,4.5-5.7,7.9-7.5c3.4-1.8,7-2.7,10.9-2.7
		c3.8,0,7.1,0.8,10.1,2.5c3,1.6,5.3,4.1,7,7.2c1.7,3.2,2.5,6.6,2.5,10.3c0,3.8-0.9,7.2-2.7,10.3c-1.8,3.1-4.3,5.6-7.5,7.3
		c-3.3,1.7-6.8,2.6-10.5,2.6c-3.9,0-7.4-0.9-10.6-2.8c-3.2-1.8-5.6-4.4-7.4-7.6C316.7,29.5,315.8,26.3,315.8,22.9 M322.4,21.7
		c0,3.1,0.7,5.9,2.1,8.6c1.4,2.7,3.3,4.7,5.9,6.2c2.6,1.5,5.1,2.2,7.7,2.2c4.1,0,7.2-1.5,9.5-4.6c2.3-3.1,3.4-6.4,3.4-9.9
		c0-2.8-0.7-5.6-2.2-8.5c-1.4-2.8-3.4-5-5.8-6.5c-2.5-1.5-5-2.3-7.5-2.3c-2.1,0-4,0.5-5.7,1.4c-1.7,0.9-3.2,2.1-4.3,3.6
		c-1.1,1.5-1.9,3.1-2.4,4.9C322.7,18.8,322.4,20.3,322.4,21.7"/>
</g>
<polygon style="fill:#FFFFFF;" points="329.2,22.3 343.2,22.3 336.2,29.4 "/>
<g>
	<path style="fill:#FFFFFF;" d="M3.1,76.3c0-3.4,1-6.7,2.9-9.9c1.9-3.2,4.5-5.7,7.9-7.5c3.4-1.8,7-2.7,10.9-2.7
		c3.8,0,7.1,0.8,10.1,2.5c3,1.6,5.3,4.1,7,7.2c1.7,3.2,2.5,6.6,2.5,10.3c0,3.8-0.9,7.2-2.7,10.3c-1.8,3.1-4.3,5.6-7.5,7.3
		c-3.3,1.7-6.8,2.6-10.5,2.6c-3.9,0-7.4-0.9-10.6-2.8C10,91.7,7.6,89.2,5.8,86C4,82.8,3.1,79.6,3.1,76.3 M9.7,75
		c0,3.1,0.7,5.9,2.1,8.6c1.4,2.7,3.3,4.7,5.9,6.2c2.6,1.5,5.1,2.2,7.7,2.2c4.1,0,7.2-1.5,9.5-4.6c2.3-3.1,3.4-6.4,3.4-9.9
		c0-2.8-0.7-5.6-2.2-8.5c-1.4-2.8-3.4-5-5.8-6.5c-2.5-1.5-5-2.3-7.5-2.3c-2.1,0-4,0.5-5.7,1.4c-1.7,0.9-3.2,2.1-4.3,3.6
		c-1.1,1.5-1.9,3.1-2.4,4.9C10,72.1,9.7,73.7,9.7,75"/>
	<path style="fill:#FFFFFF;" d="M48.5,56.5h7.7c2.8,0,5.1,0.4,6.9,1.1c2.6,1,4.6,2.4,6,4.2c1.4,1.8,2.1,3.8,2.1,6
		c0,4.3-2.5,7.8-7.5,10.6c1.2,2.1,2.5,4.2,4,6.2c2.1,3,5.2,6.8,9.2,11.6h-5.5C69,94.1,66.8,92,65,89.9c-1.9-2.1-5-6.1-9.5-12.1v9.8
		c0,1.9,0.1,3.4,0.2,4.4c0.1,1,0.4,2.3,0.9,3.8v0.3h-8v-0.3c0.7-2.7,1.1-6,1.1-9.9V64.9C49.6,61.7,49.2,59,48.5,56.5 M55.4,77.2
		c3.4-0.9,5.8-2,7.1-3.1c1.8-1.5,2.7-3.4,2.7-5.7c0-1.7-0.5-3.2-1.5-4.5c-1-1.3-2.3-2.3-4.1-3.1c-1-0.4-2.4-0.8-4.2-0.9V77.2z"/>
	<path style="fill:#FFFFFF;" d="M75.3,56.5h29.5l-2.8,6.1c-2.3-0.9-4-1.5-5.2-1.8c-1.2-0.2-2.9-0.4-5.1-0.4v26.1
		c0,3.6,0.4,6.7,1.1,9.5h-8.1c0.7-3.2,1.1-6,1.1-8.5V60.5c-1.9,0-3.6,0.1-4.8,0.4c-2.1,0.4-4.7,1.2-7.8,2.3L75.3,56.5z"/>
	<path style="fill:#FFFFFF;" d="M108.4,56.5h9c-0.6,1.5-0.9,2.8-1.1,3.9c-0.3,1.6-0.4,3.3-0.4,5.2v8h17v-7c0-2.1-0.1-3.9-0.4-5.4
		c-0.2-1.5-0.6-3.1-1.2-4.8h9.1c-0.6,1.8-1,3.2-1.2,4.3c-0.2,1.6-0.4,3.7-0.4,6.3v18.2c0,2.7,0.1,4.9,0.4,6.5
		c0.2,1.3,0.6,2.7,1.2,4.3h-9.1c0.6-1.6,1-3.1,1.2-4.2c0.3-1.6,0.4-3.8,0.4-6.4v-7h-17v6.6c0,2.5,0.1,4.6,0.4,6.4
		c0.2,1.3,0.6,2.8,1.1,4.6h-9c0.5-1.5,0.9-2.8,1.1-3.8c0.3-1.9,0.5-4.1,0.5-6.4V66.7c0-2.2-0.1-4.2-0.4-5.9
		C109.3,59.6,108.9,58.2,108.4,56.5"/>
	<path style="fill:#FFFFFF;" d="M145,76.3c0-3.4,1-6.7,2.9-9.9c1.9-3.2,4.5-5.7,7.9-7.5c3.4-1.8,7-2.7,10.9-2.7
		c3.8,0,7.1,0.8,10.1,2.5c3,1.6,5.3,4.1,7,7.2c1.7,3.2,2.5,6.6,2.5,10.3c0,3.8-0.9,7.2-2.7,10.3c-1.8,3.1-4.3,5.6-7.5,7.3
		c-3.3,1.7-6.8,2.6-10.5,2.6c-3.9,0-7.4-0.9-10.6-2.8c-3.2-1.8-5.6-4.4-7.4-7.6C145.9,82.8,145,79.6,145,76.3 M151.7,75
		c0,3.1,0.7,5.9,2.1,8.6c1.4,2.7,3.3,4.7,5.9,6.2c2.6,1.5,5.1,2.2,7.7,2.2c4.1,0,7.2-1.5,9.5-4.6c2.3-3.1,3.4-6.4,3.4-9.9
		c0-2.8-0.7-5.6-2.2-8.5c-1.4-2.8-3.4-5-5.8-6.5c-2.5-1.5-5-2.3-7.5-2.3c-2.1,0-4,0.5-5.7,1.4c-1.7,0.9-3.2,2.1-4.3,3.6
		c-1.1,1.5-1.9,3.1-2.4,4.9C151.9,72.1,151.7,73.7,151.7,75"/>
	<path style="fill:#FFFFFF;" d="M191.2,56.5h8.7c3.7,0,6.9,1,9.5,2.9c2.6,1.9,3.9,4.7,3.9,8.2c0,2.1-0.5,4-1.5,5.6
		c-1,1.7-2.5,3-4.4,3.9c-1.9,0.9-4.1,1.4-6.6,1.4c-0.5,0-1.2,0-2-0.1V85c0,0.9,0.1,2.4,0.4,4.6c0.2,2.2,0.6,4.4,1.2,6.6h-9.3
		c0.7-2.4,1.1-4.4,1.3-6.1c0.3-2.2,0.5-4.5,0.5-6.9V67.1c0-2.9-0.2-5.3-0.5-7.2C192.1,58.9,191.7,57.8,191.2,56.5 M198.7,76.6
		c2.1-0.4,3.7-0.9,4.7-1.5c1-0.6,1.9-1.6,2.6-2.8c0.7-1.3,1-2.7,1-4.3c0-1.6-0.4-3.1-1.1-4.5c-0.7-1.4-1.6-2.4-2.7-3
		c-1.1-0.6-2.5-1.1-4.3-1.3c-0.2,1.4-0.2,2.8-0.2,4.4V76.6z"/>
	<path style="fill:#FFFFFF;" d="M229.2,56.4l13.4,28.9c1.1,2.3,2.1,4.3,2.9,5.8c0.6,1.1,1.7,2.8,3.3,5.1h-9.4c0-1.2-0.1-2.1-0.2-2.7
		c-0.3-1.5-0.8-2.9-1.4-4.3l-2.3-5.4h-13.9l-2,4.3c-0.6,1.3-1.1,2.6-1.5,3.9c-0.4,1.3-0.6,2.3-0.6,3.1c0,0.2,0,0.6,0,1h-9.6
		c0.9-1.1,1.8-2.2,2.5-3.4c0.7-1.2,1.8-3.2,3.2-6l15.2-30.4H229.2z M223.8,79.2h9.6l-4.6-10.6L223.8,79.2z"/>
	<path style="fill:#FFFFFF;" d="M250.1,56.5h21.3l-3,6.1c-2-0.9-3.7-1.5-5.1-1.9c-1.4-0.4-2.8-0.5-4.2-0.5c-0.4,0-0.9,0-1.7,0.1
		v13.8H270l-3.4,5.6c-2.1-0.6-3.7-1-4.9-1.3c-1.1-0.2-2.5-0.4-4.2-0.5v14.5c2.3,0,3.8,0,4.4-0.1c0.9-0.1,1.8-0.2,2.9-0.4
		c1.5-0.3,3.1-0.6,4.8-1.1c1.1-0.3,2.5-0.7,4.2-1.3l-2.9,6.5h-20.8c0.5-1.9,0.9-3.5,1.1-4.6c0.3-1.8,0.4-3.6,0.4-5.5V66.6
		c0-0.3-0.1-1.4-0.2-3.4c-0.1-1.4-0.2-2.5-0.4-3.2C250.9,59.1,250.6,57.9,250.1,56.5"/>
	<path style="fill:#FFFFFF;" d="M276.9,56.5c1.7-0.1,3-0.1,4-0.1c5.9,0,10.4,0.6,13.6,1.9c4,1.6,7,4,9.3,7.3c2.2,3.3,3.3,6.9,3.3,11
		c0,3.3-0.7,6.3-2.2,9c-1.5,2.7-3.4,5-5.8,6.7c-1.6,1.2-3.6,2.1-5.9,2.7c-2.3,0.7-4.5,1-6.7,1h-9.6c0.6-1.8,1-3.3,1.2-4.6
		c0.3-1.9,0.4-4.4,0.4-7.5V67.4c0-3.7-0.5-7.1-1.6-10.2V56.5z M284.7,92.3c2.2-0.2,4.1-0.6,5.7-1.3c1.6-0.6,3.1-1.6,4.6-2.9
		c1.5-1.3,2.7-3,3.6-5c1-2,1.4-4.3,1.4-6.9c0-3.2-0.7-6-2.2-8.4c-1.5-2.4-3.6-4.3-6.3-5.7c-1.8-0.9-4.1-1.6-6.9-2
		c-0.2,2.1-0.3,4-0.3,5.6v20.6C284.4,88.2,284.5,90.2,284.7,92.3"/>
	<path style="fill:#FFFFFF;" d="M310.8,56.5h9c-0.6,1.7-0.9,3.1-1.1,4.3c-0.3,1.7-0.4,3.8-0.4,6.2v18.2c0,2.3,0.1,4.2,0.3,5.7
		c0.2,1.5,0.6,3.3,1.2,5.3h-9c0.6-1.8,1-3.3,1.2-4.4c0.3-1.8,0.4-4.1,0.4-6.9V65.9c0-2.1-0.2-4.1-0.5-5.9
		C311.7,59,311.3,57.8,310.8,56.5"/>
	<path style="fill:#FFFFFF;" d="M355.8,57.7v6.4c-2.1-1.1-3.9-1.8-5.5-2.2c-1.5-0.4-3.1-0.6-4.8-0.6c-4.3,0-7.9,1.4-10.8,4.3
		c-2.8,2.9-4.3,6.5-4.3,11c0,4.5,1.4,8.1,4.1,10.9c2.7,2.8,6.2,4.2,10.5,4.2c2.2,0,4.2-0.3,6-1c1.8-0.7,3.7-1.8,5.6-3.2l-0.3,6.1
		c-2.3,1.1-4.3,1.9-6.1,2.3c-1.8,0.5-3.9,0.7-6.2,0.7c-4.2,0-7.7-0.9-10.6-2.6c-2.9-1.7-5.2-4.1-6.8-7.2c-1.6-3.1-2.4-6.3-2.4-9.5
		c0-5.2,1.8-9.8,5.5-13.7c4.5-4.9,10.4-7.3,17.6-7.3c1.5,0,2.9,0.1,4.2,0.3C352.7,56.7,354.2,57.1,355.8,57.7"/>
	<path style="fill:#FFFFFF;" d="M378.2,58v6.1c-1.5-1.2-2.8-2-3.9-2.4c-1.1-0.5-2.3-0.7-3.5-0.7c-1.8,0-3.3,0.5-4.4,1.6
		c-1.1,1-1.7,2.3-1.7,3.8c0,1.3,0.5,2.6,1.6,3.9c0.8,1,3,2.5,6.7,4.6c2.8,1.6,4.7,3.2,5.8,4.8c1,1.6,1.6,3.4,1.6,5.4
		c0,3.2-1.2,5.9-3.6,8c-2.4,2.1-5.7,3.2-9.9,3.2c-2.1,0-4.3-0.4-6.8-1.1v-8.4c1.6,1.8,3,3.1,4.1,3.8c1.2,0.7,2.4,1,3.6,1
		c1.6,0,3-0.6,4.2-1.7c1.1-1.1,1.7-2.4,1.7-3.9c0-0.9-0.2-1.7-0.6-2.4c-0.4-0.7-1-1.4-1.8-2.1c-0.3-0.3-1.4-1-3.3-2.2
		c-2.8-1.8-4.7-3.1-5.6-3.9c-1.3-1.1-2.3-2.4-2.9-3.7c-0.6-1.3-0.9-2.8-0.9-4.4c0-3.1,1.1-5.8,3.4-8.1c2.3-2.3,5.1-3.4,8.4-3.4
		C372.6,56.1,375.3,56.7,378.2,58"/>
</g>
<polygon style="fill:#FFFFFF;" points="172.5,79.1 158.5,79.1 165.5,72 "/>
<polygon style="fill:#FFFFFF;" points="26.3,70.6 26.3,84.6 19.2,77.6 "/>
<polygon style="fill:#FFFFFF;" points="119.5,115.5 107.4,115.5 113.4,121.5 "/>
<polygon style="fill:#FFFFFF;" points="105.3,115.5 93.2,115.5 99.2,121.5 "/>
<polygon style="fill:#FFFFFF;" points="91.1,115.5 79,115.5 85,121.5 "/>
<polygon style="fill:#FFFFFF;" points="76.8,115.5 64.7,115.5 70.8,121.5 "/>
<polygon style="fill:#FFFFFF;" points="318.6,115.5 306.4,115.5 312.5,121.5 "/>
<polygon style="fill:#FFFFFF;" points="304.3,115.5 292.2,115.5 298.3,121.5 "/>
<polygon style="fill:#FFFFFF;" points="290.1,115.5 278,115.5 284.1,121.5 "/>
<polygon style="fill:#FFFFFF;" points="275.9,115.5 263.8,115.5 269.8,121.5 "/>
<polygon style="fill:#FFFFFF;" points="261.7,115.5 249.6,115.5 255.6,121.5 "/>
<polygon style="fill:#FFFFFF;" points="247.5,115.5 235.4,115.5 241.4,121.5 "/>
<polygon style="fill:#FFFFFF;" points="233.2,115.5 221.1,115.5 227.2,121.5 "/>
<polygon style="fill:#FFFFFF;" points="219,115.5 206.9,115.5 213,121.5 "/>
<polygon style="fill:#FFFFFF;" points="204.8,115.5 192.7,115.5 198.8,121.5 "/>
<polygon style="fill:#FFFFFF;" points="190.6,115.5 178.5,115.5 184.5,121.5 "/>
<polygon style="fill:#FFFFFF;" points="176.4,115.5 164.3,115.5 170.3,121.5 "/>
<polygon style="fill:#FFFFFF;" points="162.2,115.5 150,115.5 156.1,121.5 "/>
<polygon style="fill:#FFFFFF;" points="147.9,115.5 135.8,115.5 141.9,121.5 "/>
<polygon style="fill:#FFFFFF;" points="133.7,115.5 121.6,115.5 127.7,121.5 "/>
<g>
	<path style="fill:#FFFFFF;" d="M337.7,148c0-1.8-0.1-3.6-0.1-5.4c0-2.3,0-4.7,0.1-7l-0.1-0.1c-0.8,0-0.9,0.1-1.8,0.1l-0.1,0.1
		c0.1,1.3,0.1,1.7,0.2,4.7l0.2,6.3l-2.4-4.2c-1.3-2.2-2.6-4.6-3.9-6.9l-0.2-0.1c-1.1,0-1.3,0-2.5,0.1l-0.1,0.1
		c0.1,2.6,0.1,5.2,0.1,7.8c0,1.8,0,3.6-0.1,5.4l0.1,0.1c0.9-0.1,1-0.1,1.8-0.1l0.1-0.1c0-0.8,0-0.8-0.1-2.4c0-0.8-0.1-1.6-0.1-2.4
		l-0.2-6.5l3,5.4c1.1,2,2.3,4,3.4,6l0.2,0.1c1.1-0.1,1.2-0.1,2.3-0.1l0.1-0.1L337.7,148z M314,147.6c-1.4,0-2.5-0.7-3.1-1.8
		c-0.6-1.1-0.8-2.7-0.8-3.6c0-0.9,0.1-2.6,0.9-3.8c0.4-0.6,1.3-1.6,3.1-1.6c0.5,0,2.1,0,3.1,1.6c0.7,1.2,0.8,3,0.8,3.7
		C317.9,145,316.8,147.6,314,147.6 M313.9,149.2c3.7,0,6.2-2.4,6.2-6.9c0-4.4-2.4-7-6.1-7c-3.9,0-6.2,2.8-6.2,7.1
		C307.8,146.5,310,149.2,313.9,149.2 M300.7,135.4c-1,0.1-1.3,0.1-2.1,0.1l-0.1,0.2c0.1,2.9,0.1,5.7,0.1,8.6c0,2.5,0,3.5-0.1,4.6
		l0.1,0.1c1,0,1.3,0,2.1-0.1l0.1-0.1c-0.1-2-0.2-3.5-0.2-7.2c0-3.3,0-4.8,0.1-6L300.7,135.4z M292.5,137c0-0.6,0-0.8,0.1-1.4
		l-0.1-0.1c-1.5,0-2.9,0-4.4,0c-1.4,0-3.6,0-4.9,0l-0.1,0.1c0,0.7,0,0.7-0.1,1.4l0.1,0.1c1.7-0.1,1.9-0.1,3.5-0.1
		c0,0.8,0.1,1.8,0.1,3.8c0,2.7,0,5.3-0.1,8l0.1,0.1c1-0.1,1.1-0.1,2.2-0.1l0.1-0.1c-0.1-1.1-0.1-3-0.1-7.8c0-1.7,0-2,0-3.9
		c1.6,0,1.9,0,3.5,0L292.5,137z M272.6,147.6c-1.4,0-2.5-0.7-3.1-1.8c-0.6-1.1-0.8-2.7-0.8-3.6c0-0.9,0.1-2.6,0.9-3.8
		c0.4-0.6,1.3-1.6,3.1-1.6c0.5,0,2.1,0,3.1,1.6c0.7,1.2,0.8,3,0.8,3.7C276.5,145,275.4,147.6,272.6,147.6 M272.5,149.2
		c3.7,0,6.2-2.4,6.2-6.9c0-4.4-2.4-7-6.1-7c-3.9,0-6.2,2.8-6.2,7.1C266.4,146.5,268.6,149.2,272.5,149.2 M259.1,135.4
		c-1.3,0-1.5,0.1-2.9,0.1l-0.1,0.1c-0.3,1-0.3,1.1-1.1,3.6l-2.4,7.9l-2.1-7.7c-0.4-1.3-0.7-2.4-1-3.9l-0.1-0.1
		c-1.2,0-1.5,0.1-2.9,0.1l-0.1,0.1c0,1.7,0,1.9-0.2,5.3c-0.1,2.3-0.2,4.5-0.4,6.8c0,0.4-0.1,0.8-0.1,1.2l0.1,0.1
		c0.8-0.1,0.9-0.1,1.8-0.1l0.1-0.1c0-1.5,0-2,0.1-4.2l0.1-3.4c0.1-1.9,0.1-2.3,0.1-4.2c0.3,1.2,0.3,1.5,1.1,4.2l0.8,2.7
		c0.2,0.6,1,3.5,1.2,4c0.1,0.3,0.2,0.6,0.3,1l0.1,0.1c1.1-0.1,1.2-0.1,2.2-0.1l0.1-0.1c0.4-1.5,0.7-2.2,1.4-4.3l0.9-2.8
		c0.8-2.7,1.1-3.7,1.4-4.8c0,0.7,0,3.6,0,5l0,2c0.1,2.1,0.1,2.8,0.1,4.9l0.1,0.1c1,0,1.1-0.1,2.1-0.1l0.1-0.1
		c-0.2-4.4-0.4-8.8-0.5-13.2L259.1,135.4z M228.6,148c0-1.8-0.1-3.6-0.1-5.4c0-2.3,0-4.7,0.1-7l-0.1-0.1c-0.8,0-1,0.1-1.8,0.1
		l-0.1,0.1c0.1,1.3,0.1,1.7,0.2,4.7l0.2,6.3l-2.4-4.2c-1.3-2.2-2.6-4.6-3.9-6.9l-0.2-0.1c-1.1,0-1.3,0-2.5,0.1l-0.1,0.1
		c0.1,2.6,0.1,5.2,0.1,7.8c0,1.8,0,3.6-0.1,5.4l0.1,0.1c0.9-0.1,1-0.1,1.8-0.1l0.1-0.1c0-0.8,0-0.8-0.1-2.4c0-0.8-0.1-1.6-0.1-2.4
		l-0.2-6.5l3,5.4c1.1,2,2.3,4,3.4,6l0.2,0.1c1.1-0.1,1.2-0.1,2.3-0.1l0.1-0.1L228.6,148z M210,135.4c-1,0.1-1.3,0.1-2.1,0.1
		l-0.1,0.2c0.1,2.9,0.1,5.7,0.1,8.6c0,2.5,0,3.5-0.1,4.6l0.1,0.1c1,0,1.3,0,2.1-0.1l0.1-0.1c-0.1-2-0.2-3.5-0.2-7.2
		c0-3.3,0-4.8,0.1-6L210,135.4z M191,147.2c-2.5,0.1-3,0.1-5.9,0.1c0-1.8,0-2.3,0-4.5c2.6,0,3.1,0,5.3,0.1l0.1-0.1
		c0-0.6,0-0.8,0.1-1.5l-0.1-0.1c-2.3,0-3,0.1-5.4,0c0-1.7,0-2.3,0.1-4c2.4,0,3.2,0,5.7,0.1l0.1-0.1c0-0.7,0.1-0.9,0.1-1.5l-0.1-0.1
		c-3.5,0-4.2,0-8,0.1l-0.1,0.1c0.1,2.2,0.1,4,0.1,7.2c0,3.5-0.1,4.5-0.1,6l0.1,0.1c3.6,0,4.2-0.1,7.9-0.1l0.1-0.1
		c0-0.6,0-0.8,0.1-1.4L191,147.2z M176.3,146.3c-0.6,0.4-1.7,1.2-3.5,1.2c-2.6,0-4.6-1.7-4.6-5.3c0-3.2,1.7-5.3,4.7-5.3
		c1.7,0,2.6,0.6,3,0.9l0.2-0.1c0.1-0.8,0.1-1,0.2-1.7l-0.1-0.2c-0.6-0.2-1.7-0.6-3.5-0.6c-1.3,0-3.4,0.2-5,2c-1.7,1.8-1.7,4.1-1.7,5
		c0,4.2,2.5,7,6.6,7c1.9,0,3.1-0.6,3.6-0.8l0.1-0.1c0-0.7,0.1-1,0.1-1.9L176.3,146.3z M159.1,148c0-1.8-0.1-3.6-0.1-5.4
		c0-2.3,0-4.7,0.1-7l-0.1-0.1c-0.8,0-0.9,0.1-1.8,0.1l-0.1,0.1c0.1,1.3,0.1,1.7,0.2,4.7l0.2,6.3l-2.4-4.2c-1.3-2.2-2.6-4.6-3.9-6.9
		l-0.2-0.1c-1.1,0-1.3,0-2.5,0.1l-0.1,0.1c0.1,2.6,0.1,5.2,0.1,7.8c0,1.8,0,3.6-0.1,5.4l0.1,0.1c0.9-0.1,1-0.1,1.8-0.1l0.1-0.1
		c0-0.8,0-0.8-0.1-2.4c0-0.8-0.1-1.6-0.1-2.4l-0.2-6.5l3,5.4c1.1,2,2.3,4,3.4,6l0.2,0.1c1.1-0.1,1.2-0.1,2.3-0.1l0.1-0.1L159.1,148z
		 M141.7,147.2c-2.5,0.1-3,0.1-5.9,0.1c0-1.8,0-2.3,0-4.5c2.6,0,3.1,0,5.3,0.1l0.1-0.1c0-0.6,0-0.8,0.1-1.5l-0.1-0.1
		c-2.3,0-3,0.1-5.4,0c0-1.7,0-2.3,0.1-4c2.4,0,3.2,0,5.7,0.1l0.1-0.1c0-0.7,0.1-0.9,0.1-1.5l-0.1-0.1c-3.5,0-4.2,0-8,0.1l-0.1,0.1
		c0.1,2.2,0.1,4,0.1,7.2c0,3.5-0.1,4.5-0.1,6l0.1,0.1c3.6,0,4.2-0.1,7.9-0.1l0.1-0.1c0-0.6,0-0.8,0.1-1.4L141.7,147.2z M127.3,147.1
		c-2.5,0.1-3.1,0.1-5.2,0.1c0-0.9,0-1.7,0-3.1c0-0.5,0-5,0.2-8.6l-0.1-0.1c-1,0-1.2,0-2.2,0.1l-0.1,0.1c0.1,1.5,0.2,3.1,0.2,6.1
		c0,3.3-0.1,5.6-0.1,7.1l0.1,0.1c3.6-0.1,3.9-0.1,7.2-0.1l0.1-0.1c0-0.6,0-0.8,0.1-1.5L127.3,147.1z M113.7,147.1
		c-2.5,0.1-3.1,0.1-5.2,0.1c0-0.9,0-1.7,0-3.1c0-0.5,0-5,0.2-8.6l-0.1-0.1c-1,0-1.2,0-2.2,0.1l-0.1,0.1c0.1,1.5,0.2,3.1,0.2,6.1
		c0,3.3-0.1,5.6-0.1,7.1l0.1,0.1c3.6-0.1,3.9-0.1,7.2-0.1l0.1-0.1c0-0.6,0-0.8,0.1-1.5L113.7,147.1z M99.5,147.2
		c-2.5,0.1-3,0.1-5.9,0.1c0-1.8,0-2.3,0-4.5c2.6,0,3.1,0,5.3,0.1l0.1-0.1c0-0.6,0-0.8,0.1-1.5l-0.1-0.1c-2.3,0-3,0.1-5.4,0
		c0-1.7,0-2.3,0.1-4c2.4,0,3.2,0,5.7,0.1l0.1-0.1c0-0.7,0.1-0.9,0.1-1.5l-0.1-0.1c-3.5,0-4.2,0-8,0.1l-0.1,0.1
		c0.1,2.2,0.1,4,0.1,7.2c0,3.5-0.1,4.5-0.1,6l0.1,0.1c3.6,0,4.2-0.1,7.9-0.1l0.1-0.1c0-0.6,0-0.8,0.1-1.4L99.5,147.2z M84.8,146.3
		c-0.6,0.4-1.7,1.2-3.5,1.2c-2.6,0-4.6-1.7-4.6-5.3c0-3.2,1.7-5.3,4.7-5.3c1.7,0,2.6,0.6,3,0.9l0.2-0.1c0.1-0.8,0.1-1,0.2-1.7
		l-0.1-0.2c-0.6-0.2-1.7-0.6-3.5-0.6c-1.3,0-3.4,0.2-5,2c-1.7,1.8-1.7,4.1-1.7,5c0,4.2,2.5,7,6.6,7c1.9,0,3.1-0.6,3.6-0.8l0.1-0.1
		c0-0.7,0.1-1,0.1-1.9L84.8,146.3z M69.3,148.7c-1.3-2.2-2.6-4.5-3.9-6.8c1.4-2.4,3-4.9,3.9-6.4l-0.1-0.1c-0.9,0-1.2,0.1-2.1,0.1
		l-0.1,0.1c-1.1,2.2-1.3,2.6-2.5,4.7c-1.1-2.1-1.4-2.6-2.5-4.8l-0.2-0.1c-0.4,0.1-0.7,0.1-1.1,0.1c-0.4,0-0.7,0-1.1,0.1l-0.1,0.2
		c1.3,2,3,5.2,3.6,6.3c-0.6,1-0.8,1.4-2,3.2c-0.6,1-1.2,1.9-2.3,3.6L59,149c1-0.1,1.2-0.1,2.1-0.1l0.2-0.1c1.2-2.2,1.6-2.9,2.8-5
		c1.3,2.4,1.7,3,2.8,5.1L67,149c0.4,0,0.8-0.1,1.2-0.1c0.4,0,0.7,0,1.1-0.1L69.3,148.7z M53.7,147.2c-2.5,0.1-3,0.1-5.9,0.1
		c0-1.8,0-2.3,0-4.5c2.6,0,3.1,0,5.3,0.1l0.1-0.1c0-0.6,0-0.8,0.1-1.5l-0.1-0.1c-2.3,0-3,0.1-5.4,0c0-1.7,0-2.3,0.1-4
		c2.4,0,3.2,0,5.7,0.1l0.1-0.1c0-0.7,0.1-0.9,0.1-1.5l-0.1-0.1c-3.5,0-4.2,0-8,0.1l-0.1,0.1c0.1,2.2,0.1,4,0.1,7.2
		c0,3.5-0.1,4.5-0.1,6l0.1,0.1c3.6,0,4.2-0.1,7.9-0.1l0.1-0.1c0-0.6,0-0.8,0.1-1.4L53.7,147.2z"/>
</g>
</svg>
